<?xml version="1.0" encoding="utf-8"?>
<!DOCTYPE svg PUBLIC "-//W3C//DTD SVG 1.1//EN" "http://www.w3.org/Graphics/SVG/1.1/DTD/svg11.dtd">
<svg version="1.1" id="Layer_1" xmlns="http://www.w3.org/2000/svg" xmlns:xlink="http://www.w3.org/1999/xlink" x="0px" y="0px"
	 viewBox="0 0 1344 1920" enable-background="new 0 0 1344 1920" xml:space="preserve">
<g id="_x23_fefefdff">
</g>
<g id="_x23_e4e7eaff">
</g>
<g id="_x23_dadbe0ff">
</g>
<g>
	<g id="_x23_ffffffff">
		<path fill="#FFFFFF" stroke="#FFFFFF" stroke-width="0.0938" d="M728.12,969.29c0.32-0.14,0.97-0.42,1.29-0.56
			c32.22,8.58,64.4,17.32,96.64,25.84c0.86,0.41,2.59,0,2.65,1.35l-0.5,0.04C794.76,987.38,761.48,978.16,728.12,969.29z"/>
	</g>
	<g id="_x23_000000ff">
		<path stroke="#000000" stroke-width="0.0938" d="M517.71,23.51c106.33-0.09,212.67,0,319-0.04c0.02,34.09,0.03,68.18,0,102.28
			c-6.29,0.02-12.57,0-18.85,0c-11.13,0-22.25,0.01-33.38-0.01c-4.71,0.01-9.43,0.02-14.13,0c0.01-17.02-0.0099-34.05,0.01-51.07
			c-62.06,0.03-124.12-0.01-186.19,0.02c-0.02,17.01,0.03,34.03-0.02,51.04c-5.54,0.03-11.07,0.02-16.59,0.01
			c-11.14,0.02-22.27,0.01-33.4,0.01c-5.5-0.04-10.99,0.09-16.48-0.08C517.78,91.61,517.72,57.56,517.71,23.51z"/>
		<path stroke="#000000" stroke-width="0.0938" d="M508.23,475.5c8.65,0.03,17.31,0.01,25.96,0.01c1.31-0.01,2.62-0.02,3.93-0.02
			c-2.86,4.97-4.26,10.62-7.13,15.57c-7.64,0.74-15.33,0.02-22.99,0.26l0.03-1.69C508.29,484.92,508.21,480.2,508.23,475.5z"/>
		<path stroke="#000000" stroke-width="0.0938" d="M807.16,475.49c3.52,0.02,7.04,0.03,10.57,0.02c9.86,0.02,19.73-0.03,29.59,0.03
			c0.03,4.6-0.18,9.2,0.13,13.79c0.04,0.51,0.13,1.52,0.17,2.02c-9.21-0.02-18.41-0.06-27.61,0.06c-1.94-0.04-3.93,0.04-5.79-0.53
			C811.44,485.96,809.95,480.42,807.16,475.49z"/>
		<path stroke="#000000" stroke-width="0.0938" d="M563.05,490.73c2.61-5.26,5.48-10.4,8.8-15.24c5.2,0.04,10.4,0.01,15.6,0.02
			c-0.04,4.63,0.1,9.28-0.05,13.91c-0.09,0.51-0.27,1.54-0.36,2.05C579.05,490.91,570.99,492.01,563.05,490.73z"/>
		<path stroke="#000000" stroke-width="0.0938" d="M727.42,874.77c0.16-66.62-0.21-133.25,0.19-199.87l1.68,0.96
			c0.28,66.26-0.03,132.54,0.16,198.8C728.94,874.69,727.93,874.75,727.42,874.77z"/>
		<path stroke="#000000" stroke-width="0.0938" d="M429.36,1783.63c0.73-0.24,1.46-0.47,2.19-0.6801c18.45-0.58,36.93-0.1,55.4-0.24
			c140.02,0,280.04-0.01,420.06,0c9.25,0.16,18.57-0.59,27.75,0.9c-0.23,11.4,0.38,22.83-0.46,34.23c9.73,0.03,19.46,0.02,29.2,0
			c1.88-8.27,4.5-16.6799,9.86-23.4099c2.75-3.4701,6.85-6.4701,11.51-6.02c4.98,0.49,8.7,4.37,11.36,8.3099
			c4.91,7.5701,7.35,16.4301,8.94,25.23c2.15,13.0601,2.14,26.49,0.05,39.5601c-1.59,8.9399-4.06,17.95-9.06,25.63
			c-2.64,3.86-6.34,7.62-11.23,8.1799c-4.56,0.4801-8.64-2.4299-11.42-5.7599c-4.44-5.51-6.99-12.25-8.87-18.9801
			c-3.76-13.8099-4.14-28.3099-2.88-42.49c-9.13,0.04-18.26-0.02-27.39,0.03c0.04,11.65,0.01,23.3101,0,34.97
			c-19.36-0.0299-38.72,0.1-58.08-0.0599c0.02-16.5601-0.04-33.11,0.03-49.66c-129.38-0.12-258.76,0-388.14-0.0599
			c-0.01,16.6,0.03,33.1899-0.02,49.7899c-19.32-0.01-38.65,0.01-57.97-0.01c-0.07-11.65-0.04-23.2999-0.02-34.9399
			c-11.51-0.1-23.01-0.04-34.52-0.03c1.65,13.14,1,26.62-2.23,39.48c-1.91,7.02-4.53,14.02-8.98,19.86
			c-3.06,3.98-7.32,7.52-12.53,7.89c-5.34,0.35-10.09-2.95-13.33-6.91c-6.16-7.5499-9.17-17.11-11.05-26.5299
			c-3.14-17.1901-2.45-35.28,3.13-51.9c2.83-7.74,6.85-15.88,14.31-20.0701c5.28-3.0499,12.07-1.35,16.24,2.8
			c6.9,6.62,10.37,15.95,12.57,25.0601c12.17,0.1,24.34,0.08,36.51,0.01C428.5,1806.51,429.84,1795.01,429.36,1783.63z"/>
	</g>
	<g id="_x23_fefefeff">
		<path fill="#FEFEFE" stroke="#FEFEFE" stroke-width="0.0938" d="M681.09,658.18c41.4,0.05,82.8,0,124.2,0.02
			c0.08,75.4,0.03,150.8,0.03,226.2c-41.42-0.04-82.84,0-124.27-0.01C681.07,808.99,680.97,733.58,681.09,658.18 M755.13,675.15
			c-0.3,38.94-0.04,77.89-0.13,116.84c0.09,27.76-0.18,55.53,0.14,83.28c0.45-0.19,1.35-0.56,1.8-0.75c0.32-3.17,0.1-6.35,0.15-9.52
			c0-63.13-0.01-126.25,0.0099-189.38C756.61,675.5,755.62,675.26,755.13,675.15 M768.83,675.63c0.07,65.83-0.02,131.67,0.04,197.51
			c-0.04,1.12,0.55,1.85,1.77,2.2c0.15-2.81,0.14-5.61,0.14-8.41c-0.05-63.9,0.06-127.81-0.0601-191.72
			C770.25,675.31,769.3,675.52,768.83,675.63 M713.62,675.55c0.02,66.36,0.06,132.71-0.02,199.06
			c0.4901,0.07,1.4901,0.22,1.9901,0.3c0.0099-66.53,0.05-133.06-0.03-199.6L713.62,675.55 M727.42,874.77
			c0.51-0.02,1.52-0.08,2.03-0.11c-0.19-66.2599,0.12-132.54-0.16-198.8l-1.68-0.96C727.21,741.52,727.58,808.15,727.42,874.77
			 M741.23,681c0.1,64.73-0.12,129.47,0.11,194.2c1.4-0.16,2.0099-0.88,1.84-2.17c0.02-65.3701,0.06-130.75-0.02-196.13
			c-0.4-0.56-1.2-1.6801-1.6-2.2401C741.28,676.76,741.21,678.88,741.23,681z"/>
		<path fill="#FEFEFE" stroke="#FEFEFE" stroke-width="0.0938" d="M687.02,957.38c14.04,3.75,28.08,7.51,42.12,11.28
			c-0.78,0.17-2.33,0.51-3.11,0.6801c30.25,26.02,59.91,52.73,90.0099,78.93c4.54-16.85,9.04-33.72,13.56-50.58
			c0.11-0.38,0.33-1.15,0.44-1.53c2.96-0.27,6.01,1.38,9,1.98c64.61,17.24,129.17,34.61,193.7601,51.92
			c-7.52,27.85-14.8201,55.7599-22.46,83.5699c-0.2401,0.39-0.71,1.1801-0.95,1.5699l-0.67,1.1001c1.41-5.75,3.53-11.37,4.2-17.27
			c-19.6-5.7001-39.46-10.53-59.16-15.87c-31.58-8.37-63.16-16.76-94.76-25.05c5.52-23.1,12.41-45.85,18.04-68.92
			c-11.82-2.97-23.52-6.43-35.37-9.3c-6.18,22.98-12.32,45.98-18.47,68.97c-51.48-13.39-102.71-27.74-154.2-41.04
			c-0.19,0.7301-0.56,2.17-0.74,2.9c-0.84-1.75,0.16-3.51,0.49-5.2C674.89,1002.82,680.93,980.09,687.02,957.38 M684.14,971.97
			c25.59,22.3701,51.1,44.84,76.65,67.25c1.97,1.8301,4.76,2.13,7.2401,2.85c5.89,1.42,11.64,3.38,17.61,4.4701
			c-17.78-16.64-36.23-32.55-54.24-48.9401c-14.63-12.89-28.87-26.22-43.67-38.91C686.39,963.07,685.19,967.51,684.14,971.97
			 M682.77,976.98c-3.63,13.1-7.09,26.25-10.6,39.39c25.37,6.74,50.71,13.64,76.1,20.36C726.7,1016.54,704.54,996.96,682.77,976.98
			 M887.98,1012.21c-4.52,17.2499-9.21,34.45-13.79,51.69c39.44-7.9301,78.98-15.4501,118.37-23.62
			C957.74,1030.78,922.85,1021.5,887.98,1012.21 M876.04,1070.98c7.59,2.11,15.23,4.0701,22.83,6.1801
			c2.99,1.0599,6.1,0.1,9.07-0.52c41.11-8.6801,82.28-17.0701,123.3701-25.8201c-6.9901-2.37-14.22-3.8899-21.3-5.95
			c-2.94-0.76-5.96-2.01-9.01-1.12C959.37,1052.96,917.61,1061.58,876.04,1070.98 M939.02,1087.8199
			c25.7,7.04,51.47,13.8501,77.22,20.75c3.4-13.1499,7.04-26.23,10.48-39.37C997.49,1075.41,968.22,1081.48,939.02,1087.8199z"/>
		<path fill="#FEFEFE" stroke="#FEFEFE" stroke-width="0.0938" d="M667.49,1030.04l0.77,0.6799c-2.48,10.6-5.9,20.97-8.17,31.63
			c51.59,13.7101,103.1299,27.62,154.7,41.4301c-5.95,22.84-12.23,45.59-18.23,68.4199c4.53,1.25,9.14,2.2201,13.55,3.89
			c-2.82,0.3-5.48-0.9299-8.17-1.5399c-53.8-14.4501-107.63-28.8201-161.42-43.3101C649.38,1097.48,658.66,1063.8199,667.49,1030.04
			 M657.09,1072.29c-3.34,13.14-6.95,26.22-10.46,39.3199c28.85-6.3199,57.79-12.3199,86.58-18.91
			C707.88,1085.74,682.5,1078.97,657.09,1072.29 M641.77,1130.7c7.48,2.0801,15.03,3.92,22.49,6.0701
			c1.48,0.35,3.03,0.9399,4.59,0.59c42.42-8.92,84.85-17.7999,127.26-26.79c-8.27-2.5499-16.66-4.6899-25.05-6.7999
			C728,1112.9399,684.77,1121.28,641.77,1130.7 M679.89,1140.8101c34.52,9.59,69.24,18.5099,103.79,28.0199
			c4.84-17.4199,9.41-34.9199,14.09-52.38C758.48,1124.61,719.13,1132.45,679.89,1140.8101z"/>
		<path fill="#FEFEFE" stroke="#FEFEFE" stroke-width="0.0938" d="M830.87,1181.49c6.68-22.87,12.27-46.04,18.75-68.97
			c50.01,13.47,100.16,26.4199,150.17,39.9199c1.52,0.42,3.04,0.8101,4.64,1.05c1.06-2.73,1.56-5.62,2.29-8.4299
			c0.05,0.1599,0.15,0.48,0.2,0.6399c-1.23,7.4-3.91,14.4801-5.59,21.8c-4.32,16.35-8.77,32.67-13.1,49.02
			c-0.79,2.39-0.94,5.12-2.34,7.25c-14.35-3.7001-28.65-7.64-42.98-11.4401c0.89-0.1,2.65-0.2999,3.53-0.3999
			c-29.58-25.88-58.89-52.05-88.36-78.05c-0.7-0.59-1.37-1.13-2.1-1.6c-4.86,17.3199-9.41,34.74-14.03,52.14
			c33.76,8.88,67.4,18.1699,101.17,26.99c-0.18,0.21-0.55,0.64-0.73,0.86c-40.4-11.03-80.9-21.6901-121.34-32.61
			c-3.68-1.1-7.5-1.7201-11.05-3.1801l0.11-0.39C817.14,1177.41,823.98,1179.58,830.87,1181.49 M886.88,1134.9301
			c32.63,29.5499,65.8,58.5099,98.55,87.9399c1.36-4.3,2.5-8.67,3.54-13.05c-25.08-22.5299-50.48-44.71-75.62-67.1799
			c-1.97-1.79-4.7599-2.03-7.19-2.79C899.72,1138.27,893.38,1136.25,886.88,1134.9301 M923.94,1144.9399
			c22.4,19.0601,44.65,38.3,67.14,57.27c3.3-12.34,6.8-24.63,9.8-37.0399c-17.07-4.3101-34.01-9.0901-51.04-13.5701
			C941.19,1149.45,932.69,1146.64,923.94,1144.9399z"/>
	</g>
	<g id="_x23_e6e6e6ff">
		<path fill="#E6E6E6" stroke="#E6E6E6" stroke-width="0.0938" d="M534.16,125.75c11.13,0,22.26,0.01,33.4-0.01
			c-0.92,4.71-0.95,9.52-0.82,14.3c0.18,99.36-0.2,198.72,0.2,298.07c-11.75,10.6-21.66,23.25-28.82,37.38
			c-1.31,0-2.62,0.01-3.93,0.02c0.26-54.5,0.05-108.99,0.12-163.49c-0.05-54.69,0.1-109.38-0.03-164.07
			C534.32,140.55,534.45,133.15,534.16,125.75z"/>
		<path fill="#E6E6E6" stroke="#E6E6E6" stroke-width="0.0938" d="M784.48,125.74c11.13,0.02,22.25,0.01,33.38,0.01
			c-0.42,51.07,0.01,102.16-0.19,153.23c0.12,65.51-0.06,131.02,0.06,196.53c-3.53,0.01-7.05,0-10.57-0.02
			c-5.94-11.63-13.65-22.33-22.81-31.63c1.28-4.85,1-9.88,0.9301-14.84c0.02-99.01-0.03-198.02,0-297.03
			C785.16,129.89,784.82,127.81,784.48,125.74z"/>
	</g>
	<g id="_x23_006837ff">
		<path fill="#006837" stroke="#006837" stroke-width="0.0938" d="M626.27,406.26c39.83-11.06,83.75-7.54,120.94,10.75
			c-2.35,0.4-4.76,0.2-7.07,0.79c-2.38,1.19-1.73,3.9-1.08,5.93c-0.28,0.38-0.84,1.16-1.11,1.55c-1.93,1.98-0.2,5.02-1.83,7.17
			c-1.66,2-0.22,4.38,0.51,6.45c-0.88,0.78-1.75,1.57-2.61,2.36c-19.84-10.67-42.69-15.17-65.11-14.67
			c-32.77,0.84-66.15,13.4-88.43,38.02c-3.13,3.41-6.01,7.06-8.63,10.88c-3.3199,4.84-6.19,9.98-8.8,15.24
			c7.94,1.28,16,0.18,23.99,0.74c46.66,0.36,93.34,0.01,140,0.16c5.53,0.14,11.13-0.49,16.62,0.5c0.53,0.18,1.6,0.55,2.13,0.73
			c-0.94,1.57-3.0099,3.07-2.06,5.14c1.53,2.83,6.2,3.46,8.46,1.12c1.53-2.32-1.53-5,0.08-7.24c5.29-0.4,10.61-0.16,15.92-0.43
			c4.66-0.12,9.33-0.11,13.99-0.29c-2.6-5.97-5.77-11.71-9.74-16.88c-2.19-3.47-4.87-6.6-7.6-9.64c-2.78-3.08-5.89-5.83-8.96-8.6
			c-2.73-2.65-5.95-4.7-8.7-7.3c-1.48-1.55-2.87-3.16-4.4-4.64c0.46-0.31,1.39-0.92,1.85-1.22c-0.23-1.51-0.38-3.18-1.99-3.82
			c0.97-2.34,2.94-5.24,0.28-7.24c1.32-1.05,2.66-2.17,3.46-3.69c-0.54-1.29-1.13-2.54-1.77-3.76c1.51-0.68,2.99-1.44,4.57-1.98
			c2.3-0.18,4.6-0.31,6.91-0.55c3.73,2.29,7.43,4.63,10.98,7.2c6.17,4.43,11.91,9.44,17.28,14.82c9.16,9.3,16.87,20,22.81,31.63
			c2.79,4.93,4.28,10.47,7.06,15.39c1.86,0.57,3.85,0.49,5.79,0.53c9.2-0.12,18.4-0.08,27.61-0.06c37.15,0.2,74.3,0,111.44,0.1
			c28.99,0.81,58.02,9.09,82.22,25.26c5.73,4.2599,11.9399,7.95,17.01,13.04c5.1799,5.14,10.5,10.17,15.26,15.71
			c6.71,8.49,12.75,17.55,17.59,27.24c3.4,6.43,5.21,13.53,7.79,20.31c2.5699,9.12,4.7699,18.45,5.09,27.96
			c1.13,15.02-0.49,30.14,0.85,45.13c-85.82,0.01-171.64,0.11-257.46-0.04c0.11-11.7-0.0699-23.39,0.1-35.07
			c-0.07-2.52,0.19-5.21-1-7.51c-8.91-15.86-18.68-31.26-26.57-47.66c-8.33-14.05-15.95-28.52-24.79-42.26
			c-15.59-0.18-31.1801-0.09-46.76-0.08c-0.12-1.73-0.58-3.43-1.57-4.86c-0.61-0.23-1.82-0.69-2.43-0.92
			c2.07-1.9,1.2-4.48,0.32-6.68c0.41-0.27,1.24-0.79,1.65-1.05c0.38-0.25,1.15-0.74,1.53-0.98c-0.08-2.26-0.81-5.53-3.82-4.81
			c-2.94-0.71-6.76,1.14-5.5,4.64c0.34,0.32,1.03,0.94,1.37,1.26c-2.11,1.7-4.95,4.37-2.15,6.89c0.47,0.3101,1.41,0.92,1.89,1.23
			c-0.22,0.47-0.64,1.43-0.86,1.9c-0.32,1.02-0.6,2.06-0.85,3.11c-15.5699,0.47-31.15,0.07-46.72,0.23
			c-2.2,3.21-4.13,6.58-5.86,10.06c-2.31,4.61-5.66,8.61-7.81,13.3c-1.83,3.99-4.07,7.76-6.4,11.47
			c-9.09,16.52-18.7,32.74-27.94,49.18c-2.01,3.62-4.84,7.18-4.63,11.57c0.08,12.3-0.08,24.6,0.12,36.9l-1.1,0.1
			c-132.5,0.26-265.01,0.03-397.51,0.12c0.36-14.4-0.03-28.8,0.21-43.19c1.29-17.6,5.49-35.16,13.72-50.85
			c4.55-10.16,11.32-19.08,18.15-27.79c7.47-8.93,15.92-17.11,25.62-23.58c20.33-15.41,45.02-24.47,70.17-27.95
			c14.95-1.94,30.03-1.21,45.05-1.34c31.65-0.08,63.31,0.11,94.96-0.12c7.66-0.24,15.35,0.48,22.99-0.26
			c2.87-4.95,4.27-10.6,7.13-15.57c7.16-14.13,17.07-26.78,28.82-37.38C583.83,422.99,604.47,412.31,626.27,406.26 M743.57,507.02
			c-2.66,0.76-4.54,3.47-2.66,6.06c2.16,1.34,4.9301,0.5,7.35,0.63c1.36-1.8,1.58-3.95,0.12-5.75c-0.98-0.17-2.94-0.51-3.92-0.68
			c1.04-1.5,2.84-0.14,4.29-0.32c1.27-0.57,2.03-1.86,3.03-2.78c-0.52-0.99-1.03-1.97-1.53-2.95c-1.9-0.38-3.8-0.76-5.68-1.14
			C741.86,501.54,741.46,504.85,743.57,507.02z"/>
		<path fill="#006837" stroke="#006837" stroke-width="0.0938" d="M239.43,712.07c26.85,0.43,53.73,0.05,80.59,0.18
			c105.85,0.03,211.71-0.05,317.57,0.04l1.18,0.07c-0.34,71.23,0.02,142.46-0.18,213.69c0.04,2.11,0.15,4.35,1.33,6.2
			c3.67,0.52,7.39,0.28,11.09,0.29c64.35-0.06,128.71,0.05,193.05-0.05c2.12,0.37,3.86-1.36,3.4-3.48
			c-0.08-72.25,0.03-144.51-0.05-216.76c85.81-0.05,171.63,0.1,257.43-0.08c-0.61,24.26-0.08,48.55-0.24,72.82
			c-0.01,243.35-0.01,486.6901-0.01,730.04c0.17,14.4-0.35,28.8199,0.23,43.22c-288.28-0.08-576.5699,0-864.8599-0.04
			c0.67-15.0499,0.16-30.11,0.31-45.1699c0.03-264.3501-0.02-528.7,0.03-793.05C240.28,717.32,240.01,714.66,239.43,712.07
			 M639.11,933.52c68.92,0.09,137.83,0.07,206.74,0.01c-16.63-0.2401-33.27-0.03-49.91-0.1201
			C743.67,933.52,691.39,933.28,639.11,933.52 M687.02,957.38c-6.09,22.71-12.13,45.44-18.27,68.14c-0.33,1.6899-1.33,3.45-0.49,5.2
			l-0.77-0.6799c-8.83,33.7799-18.11,67.4399-26.97,101.2c53.79,14.49,107.62,28.86,161.42,43.3101c2.69,0.61,5.35,1.84,8.17,1.5399
			l-0.11,0.39c3.55,1.46,7.37,2.0801,11.05,3.1801c40.44,10.9199,80.94,21.58,121.34,32.61l-0.12,0.14
			c0.16-0.02,0.48-0.0601,0.64-0.0801c14.33,3.8,28.63,7.74,42.98,11.4401c1.4-2.13,1.55-4.86,2.34-7.25
			c4.33-16.35,8.78-32.67,13.1-49.02c1.68-7.3199,4.36-14.4,5.59-21.8l0.22,0.62c1.26-4.1799,2.64-8.35,3.2-12.6899
			c7.64-27.8101,14.94-55.72,22.46-83.5699C968.21,1032.75,903.65,1015.38,839.04,998.14c-2.99-0.6-6.04-2.25-9-1.98
			c-0.11,0.38-0.33,1.15-0.44,1.53c-0.35-0.43-1.05-1.3-1.4-1.73l0.5-0.04c-0.06-1.35-1.79-0.94-2.65-1.35
			c-32.24-8.52-64.42-17.26-96.64-25.84l0.54-0.24c-0.21,0.04-0.61,0.13-0.81,0.17C715.1,964.89,701.06,961.13,687.02,957.38
			 M945.16,1228.45c-36.39,13.3301-72.87,26.42-109.21,39.8601c-0.97,0.1499-1.92,0.33-2.86,0.5299
			c-5.19,2.4701-10.65,4.36-16.1201,6.0801c-8.14,3.61-16.77,5.9299-24.99,9.3199c-11.76,4.11-23.34,8.71-35.17,12.64
			c-7.18,2.96-14.56,5.42-21.82,8.1801c-20.29,7.0099-40.24,15.0399-60.64,21.6899c0.1,1.36,0.05,2.75,0.4901,4.09
			c3.18,9.4701,7.08,18.6901,10.08,28.23c3.73,9.0601,6.74,18.41,10.23,27.5701c2.72,8.1799,6.23,16.08,8.7599,24.33
			c4.9901,13.25,9.71,26.5801,14.59,39.87c2.9,7.38,4.92,15.14,8.53,22.2201c0.46,2.34,1.11,4.6599,2.1299,6.85
			c3.56,10.4299,7.3701,20.7899,11.41,31.0499c7.87-2.37,15.5-5.4399,23.26-8.1499c1.68-0.65,3.37-1.28,5.05-1.9401
			c21.85-7.67,43.48-15.96,65.31-23.6899c14.94-5.37,29.76-11.0901,44.82-16.12c5.23-2.3,10.62-4.2401,16.09-5.91
			c7.92-3.1801,16.01-5.9,24-8.87C937.78,1439.6,956.29,1432.4,975.09,1426.1c0.43-0.34,1.29-1.02,1.72-1.36
			c1.05-0.17,2.12-0.3199,3.2-0.4399c13.1-5.29,26.49-9.8,39.76-14.6101c0.51-5.2799-2.5-9.83-3.89-14.71
			c-0.93-2.7-1.85-5.41-2.72-8.11c-2.43-5.47-4.21-11.1801-6.33-16.76c-3.31-9.02-6.34-18.12-9.93-27.03
			c-3.86-10.75-7.27-21.7-11.89-32.1499c-8.7-26.1801-18.95-51.8501-27.89-77.9501c-1.01-2.08-1.66-4.29-1.94-6.5599
			C951.67,1225.91,948.36,1227.24,945.16,1228.45 M517.97,1240.89c-32.07,18.65-64.24,37.11-96.35,55.7
			c-4.22,2.5-8.86,4.4701-12.32,8.05c0.18-0.76,0.38-1.51,0.58-2.24c-4.82,4.6899-11.28,7.0699-16.87,10.6699
			c-34.79,20.2101-69.69,40.26-104.52,60.4c-0.39,1.17-0.31,2.5,0.37,3.5801c6.78,12.1499,14.07,24.0199,20.74,36.23
			c1.96,3.08,3.73,6.28,5.6,9.4199c-0.12,2.6801,0.84,5.1901,3.12,6.74l-0.25-1.7c4.51,7.86,9.05,15.7,13.62,23.53
			c7.39,13.0499,15.07,25.9399,22.42,39.02c3.67-1.5601,7.11-3.5901,10.52-5.63c75.12-43.39,150.21-86.8101,225.36-130.14
			c-7.23-13.26-15.08-26.1801-22.5-39.3301c-6.97-11.98-13.87-24.0099-20.78-36.0199c-0.64-4.5601-3.69-8.17-5.89-12.05
			c-2-3.2-3.33-6.9-6.21-9.46c0.11,0.58,0.35,1.73,0.46,2.2999c-0.51-1.11-1.02-2.2-1.52-3.2799c-0.38-0.3101-1.12-0.9401-1.5-1.25
			c0.42,0.0699,1.24,0.21,1.65,0.2799c-1.25-1.51-1.59-3.4299-2.3-5.1599c-4.19-2.9401-5.63-8.24-8.35-12.37
			C521.34,1239.05,519.64,1239.9399,517.97,1240.89z"/>
		<path fill="#006837" stroke="#006837" stroke-width="0.0938" d="M238.23,1604.01c8.89,0.6799,17.81,0.17,26.71,0.3199
			c229.03,0,458.05,0,687.08,0c51.18-0.12,102.37,0.24,153.54-0.1799c-1.5901,5.15-0.91,10.59-0.9801,15.9
			c-0.0399,9.3099,0.13,18.62-0.0599,27.9399c-0.97,22-7.7001,43.71-18.9,62.66c-8.61,13.61-18.6801,26.6899-31.75,36.3099
			c-5.04,3.9401-9.98,8.02-15.34,11.51c-25.47,15.8201-55.5601,24.03-85.54,23.22c-173.48,0.17-346.97-0.0599-520.45,0.1101
			c-13.83-0.2301-27.67-0.0801-41.5-0.1001c-39.15,0.88-78.59-13.6699-107.21-40.51c-11.75-10.9199-21.35-24.0499-28.89-38.1699
			c-10.3-19.6-15.48-41.89-14.66-64.02c-0.01-9.66,0-19.3199-0.01-28.97c0.14-2.22-0.62-4.28-2-5.9601L238.23,1604.01z"/>
	</g>
	<g id="_x23_b6b1b5ff">
		<path fill="#B6B1B5" stroke="#B6B1B5" stroke-width="0.0938" d="M748.62,416.32c2.48-1.73,5.9-1.35,7.66,1.22
			c-0.0601,1.43-0.1201,2.86-0.19,4.3c-2.31,0.24-4.61,0.37-6.91,0.55C749.55,420.34,749.25,418.28,748.62,416.32z"/>
		<path fill="#B6B1B5" stroke="#B6B1B5" stroke-width="0.0938" d="M1009.39,1135.2c0.24-0.3899,0.71-1.1799,0.95-1.5699
			c-0.56,4.34-1.94,8.51-3.2,12.6899l-0.22-0.62c-0.05-0.1599-0.15-0.48-0.2-0.6399c-0.73,2.8099-1.23,5.7-2.29,8.4299
			c-1.6-0.24-3.12-0.63-4.64-1.05c1.05,0.16,3.17,0.4701,4.23,0.6201c1.59-5.5801,2.8-11.27,4.7-16.76L1009.39,1135.2z"/>
	</g>
	<g id="_x23_aab3b2ff">
		<path fill="#AAB3B2" stroke="#AAB3B2" stroke-width="0.0938" d="M740.14,417.8c2.31-0.59,4.72-0.39,7.07-0.79l1.41-0.69
			c0.63,1.96,0.93,4.02,0.56,6.07c-1.58,0.54-3.06,1.3-4.57,1.98c-2.2,0.47-4.45,0.62-6.66,0.91c0.27-0.39,0.83-1.17,1.11-1.55
			C738.41,421.7,737.76,418.99,740.14,417.8z"/>
	</g>
	<g id="_x23_afb6b5ff">
		<path fill="#AFB6B5" stroke="#AFB6B5" stroke-width="0.0938" d="M756.28,417.54c2.75-0.24,5.96-1.2,8.25,0.91
			c1.37,1.65,0.17,3.8,0,5.66c0.8,0.66,1.6,1.33,2.42,2c0.03,0.74,0.09,2.2,0.12,2.93c-3.55-2.57-7.25-4.91-10.98-7.2
			C756.16,420.4,756.22,418.97,756.28,417.54z"/>
	</g>
	<g id="_x23_aeb0b1ff">
		<path fill="#AEB0B1" stroke="#AEB0B1" stroke-width="0.0938" d="M736.12,432.45c1.63-2.15-0.1-5.19,1.83-7.17
			c2.21-0.29,4.46-0.44,6.66-0.91c0.64,1.22,1.23,2.47,1.77,3.76c-0.8,1.52-2.14,2.64-3.46,3.69
			C740.64,432.02,738.37,432.18,736.12,432.45z"/>
	</g>
	<g id="_x23_b0b2b4ff">
		<path fill="#B0B2B4" stroke="#B0B2B4" stroke-width="0.0938" d="M736.12,432.45c2.25-0.27,4.52-0.43,6.8-0.63
			c2.66,2,0.69,4.9-0.28,7.24c-2.01-0.1-4.02-0.13-6.01-0.16C735.9,436.83,734.46,434.45,736.12,432.45z"/>
	</g>
	<g id="_x23_b2b5b7ff">
		<path fill="#B2B5B7" stroke="#B2B5B7" stroke-width="0.0938" d="M734.02,441.26c0.86-0.79,1.73-1.58,2.61-2.36
			c1.99,0.03,4,0.06,6.01,0.16c1.61,0.64,1.76,2.31,1.99,3.82c-0.46,0.3-1.39,0.91-1.85,1.22c-0.32,0.19-0.95,0.57-1.27,0.76
			c0.87,1.2,1.75,2.41,2.64,3.61c-1.14,1.73-2.56,3.23-4.35,4.28c-1.12-0.89-2.31-1.72-3.15-2.87c-0.48-1.49,0.39-2.97,0.63-4.42
			C736.18,444.06,735.08,442.66,734.02,441.26z"/>
	</g>
	<g id="_x23_a7a7aaff">
		<path fill="#A7A7AA" stroke="#A7A7AA" stroke-width="0.0938" d="M741.51,444.86c0.32-0.19,0.95-0.57,1.27-0.76
			c1.53,1.48,2.92,3.09,4.4,4.64c-0.9,0.86-1.77,1.73-2.65,2.6c1.2,0.9,2.42,1.79,3.5099,2.86c0.15,1.68-0.9,3.16-1.44,4.69
			c0.77,1.88,2.45,4.48,0.2401,6.06c-2.1201,1.27-5.41,1.22-7.5-0.08c-2.35-1.47-0.48-4.12,0.19-5.98
			c-0.94-2.04-2.38-4.74,0.27-6.14c1.79-1.05,3.21-2.55,4.35-4.28C743.26,447.27,742.38,446.06,741.51,444.86 M739.87,454.63
			c1.56,1.33,3.22,2.57,4.98,3.65c0.09-1.39,0.12-2.77,0.1-4.16C743.39,452.3,741.5,453.85,739.87,454.63 M740.96,459.88
			c0.46,1.52,0.05,3.88,2.02,4.48c0.99-0.75,1.92-1.57,2.79-2.48C744.35,460.79,742.72,460.11,740.96,459.88z"/>
	</g>
	<g id="_x23_b8b9beff">
		<path fill="#B8B9BE" stroke="#B8B9BE" stroke-width="0.0938" d="M739.87,454.63c1.63-0.78,3.52-2.33,5.08-0.51
			c0.02,1.39-0.01,2.77-0.1,4.16C743.09,457.2,741.43,455.96,739.87,454.63z"/>
	</g>
	<g id="_x23_b0b1b5ff">
		<path fill="#B0B1B5" stroke="#B0B1B5" stroke-width="0.0938" d="M755.88,456.04c3.07,2.77,6.18,5.52,8.96,8.6
			c-0.77,0.42-1.52,0.85-2.26,1.28c0.37,1.29,0.82,2.56,1.03,3.9c-0.66,1.16-1.51,2.19-2.29,3.26c0.86,2.59,0.29,5-1.76,6.82
			c0.44,2.32,0.33,4.68-0.95,6.72c0.5,0.9,1,1.8,1.54,2.71c-2.29-0.01-4.56,0.01-6.82,0.04c-0.36,0.83-0.71,1.67-1.06,2.51
			c-2.09,0.68-4.27,1.46-6.48,0.98c-0.53-0.18-1.6-0.55-2.13-0.73c-0.14-0.95-0.28-1.89-0.41-2.83c0.54-0.88,1.08-1.76,1.64-2.63
			c-0.61-1.21-1.22-2.43-1.81-3.64c0.35-0.92,0.71-1.85,1.09-2.76c-0.86-1.12-1.75-2.21-2.46-3.41c0.1-1.63,0.5099-3.21,0.84-4.79
			c2.66,0.12,5.42,0.24,7.78,1.64c1.46,1.29,2.93-0.21,4.31-0.78c-0.32-1.6-0.92-3.19-0.78-4.82c0.74-1,1.6-1.89,2.46-2.8
			c-1.19-2.24-0.76-4.58,0.51-6.68C756.52,457.75,756.2,456.89,755.88,456.04 M751.29,476.59c-0.47,1.11-0.93,2.22-1.38,3.34
			c1.36-0.08,2.73-0.15,4.11-0.21C753.1,478.67,752.19,477.63,751.29,476.59 M751.22,486.05
			C751.3,489.38,754.21,484.55,751.22,486.05z"/>
	</g>
	<g id="_x23_bababdff">
		<path fill="#BABABD" stroke="#BABABD" stroke-width="0.0938" d="M740.96,459.88c1.7599,0.23,3.39,0.91,4.81,2
			c-0.87,0.91-1.8,1.73-2.79,2.48C741.01,463.76,741.42,461.4,740.96,459.88z"/>
	</g>
	<g id="_x23_b2b3b7ff">
		<path fill="#B2B3B7" stroke="#B2B3B7" stroke-width="0.0938" d="M740.4,467.19c1.58-1.87,4.38-1.13,6.52-1.15
			c2.94-0.15,4.17,4.19,1.69,5.72c-2.57,0.37-5.19,0.24-7.77,0.33C740.22,470.52,739.13,468.75,740.4,467.19z"/>
	</g>
	<g id="_x23_000100ff">
		<path fill="#000100" stroke="#000100" stroke-width="0.0938" d="M772.44,474.28c3.97,5.17,7.14,10.91,9.74,16.88
			c-4.66,0.18-9.33,0.17-13.99,0.29c-0.01-0.54-0.04-1.61-0.05-2.14c-0.1-4.55-0.02-9.1-0.05-13.65c1.09-0.1,3.29-0.3,4.3799-0.4
			C772.46,475.01,772.45,474.52,772.44,474.28z"/>
		<path fill="#000100" stroke="#000100" stroke-width="0.0938" d="M768.83,675.63c0.47-0.11,1.42-0.32,1.89-0.42
			c0.1201,63.91,0.01,127.82,0.0601,191.72c0,2.8,0.0099,5.6-0.14,8.41c-1.22-0.35-1.81-1.08-1.77-2.2
			C768.81,807.3,768.9,741.46,768.83,675.63z"/>
		<path fill="#000100" stroke="#000100" stroke-width="0.0938" d="M713.62,675.55l1.94-0.24c0.08,66.54,0.04,133.07,0.03,199.6
			c-0.5-0.08-1.5-0.23-1.9901-0.3C713.68,808.26,713.64,741.91,713.62,675.55z"/>
		<path fill="#000100" stroke="#000100" stroke-width="0.0938" d="M741.23,681c-0.02-2.12,0.05-4.24,0.33-6.34
			c0.4,0.56,1.2,1.6801,1.6,2.2401c0.08,65.38,0.04,130.7599,0.02,196.13c0.17,1.29-0.44,2.0099-1.84,2.17
			C741.11,810.47,741.33,745.73,741.23,681z"/>
	</g>
	<g id="_x23_0b233fff">
		<path fill="#0B233F" stroke="#0B233F" stroke-width="0.0938" d="M587.4,489.42c51.95-0.23,103.9,0.02,155.85-0.12
			c0.13,0.94,0.27,1.88,0.41,2.83c-5.49-0.99-11.09-0.36-16.62-0.5c-46.66-0.15-93.34,0.2-140-0.16
			C587.13,490.96,587.31,489.93,587.4,489.42z"/>
	</g>
	<g id="_x23_0b2341ff">
		<path fill="#0B2341" stroke="#0B2341" stroke-width="0.0938" d="M753.33,489.37c2.26-0.03,4.53-0.05,6.82-0.04
			c2.65-0.01,5.3199-0.01,7.99-0.02c0.01,0.53,0.04,1.6,0.05,2.14c-5.31,0.27-10.63,0.03-15.92,0.43
			C752.62,491.04,752.97,490.2,753.33,489.37z"/>
	</g>
	<g id="_x23_0e2349ff">
		<path fill="#0E2349" stroke="#0E2349" stroke-width="0.0938" d="M847.45,489.33c36.52-0.02,73.04-0.01,109.56,0
			c24.19,0.15,48.4,5.69,70.01,16.62c30.1699,15.04,55.27,40.55,68.65,71.61c4.97,11.59,8.45,23.86,9.98,36.39
			c1.59,11.27,1.0399,22.67,1.15,34.01c-0.1001,6.2,0.23,12.41-0.2101,18.6l-1.72-0.46c-1.34-14.99,0.28-30.11-0.85-45.13
			c-0.3201-9.5099-2.52-18.84-5.09-27.96c-2.5801-6.78-4.39-13.88-7.79-20.31c-4.84-9.69-10.88-18.75-17.59-27.24
			c-4.76-5.54-10.0801-10.57-15.26-15.71c-5.0701-5.09-11.28-8.78-17.01-13.04c-24.2-16.17-53.23-24.45-82.22-25.26
			c-37.14-0.1-74.29,0.1-111.44-0.1C847.58,490.85,847.49,489.84,847.45,489.33z"/>
	</g>
	<g id="_x23_161f4bff">
		<path fill="#161F4B" stroke="#161F4B" stroke-width="0.0938" d="M310.62,509.73c19.1-10.88,40.53-17.62,62.41-19.63
			c9.63-1.02,19.33-0.76,28.99-0.78c33-0.02,66,0.01,99-0.02c2.33,0.05,4.71-0.21,7.01,0.33l-0.03,1.69
			c-31.65,0.23-63.31,0.04-94.96,0.12c-15.02,0.13-30.1-0.6-45.05,1.34c-25.15,3.48-49.84,12.54-70.17,27.95
			c-9.7,6.47-18.15,14.65-25.62,23.58c-6.83,8.71-13.6,17.63-18.15,27.79c-8.23,15.69-12.43,33.25-13.72,50.85
			c-0.24,14.39,0.15,28.79-0.21,43.19c-0.52-0.02-1.56-0.06-2.08-0.08c-0.3-10.67,0.17-21.34-0.1-32
			c-0.25-18.98,3.16-38.04,10.68-55.49C260.85,549.54,283.28,525.2,310.62,509.73z"/>
		<path fill="#161F4B" stroke="#161F4B" stroke-width="0.0938" d="M1104.84,712.17c0.4701-0.05,1.41-0.16,1.88-0.21
			c0.2001,221.69,0.03,443.3799,0.0901,665.07c-0.05,60.4399,0.08,120.88-0.0601,181.3199c-0.49-0.02-1.45-0.08-1.9301-0.1
			c-0.58-14.4-0.0599-28.8199-0.23-43.22c0-243.35,0-486.6901,0.01-730.04C1104.76,760.72,1104.23,736.43,1104.84,712.17z"/>
	</g>
	<g id="_x23_b6b2b7ff">
		<path fill="#B6B2B7" stroke="#B6B2B7" stroke-width="0.0938" d="M745.79,492.86c2.21,0.48,4.39-0.3,6.48-0.98
			c-1.61,2.24,1.45,4.92-0.08,7.24c-2.26,2.34-6.93,1.71-8.46-1.12C742.78,495.93,744.85,494.43,745.79,492.86z"/>
	</g>
	<g id="_x23_b4b7b9ff">
		<path fill="#B4B7B9" stroke="#B4B7B9" stroke-width="0.0938" d="M743.57,507.02c-2.11-2.17-1.71-5.48,1-6.93
			c1.88,0.38,3.78,0.76,5.68,1.14c0.5,0.98,1.01,1.96,1.53,2.95c-1,0.92-1.76,2.21-3.03,2.78c-1.45,0.18-3.25-1.18-4.29,0.32
			c0.98,0.17,2.94,0.51,3.92,0.68c1.46,1.8,1.24,3.95-0.12,5.75c-2.42-0.13-5.19,0.71-7.35-0.63
			C739.03,510.49,740.91,507.78,743.57,507.02z"/>
	</g>
	<g id="_x23_b5b7b9ff">
		<path fill="#B5B7B9" stroke="#B5B7B9" stroke-width="0.0938" d="M738.57,518.82c-1.26-3.5,2.56-5.35,5.5-4.64
			c3.01-0.72,3.74,2.55,3.82,4.81c-0.38,0.24-1.15,0.73-1.53,0.98c-2.15,0.07-4.29,0.07-6.42,0.11
			C739.6,519.76,738.91,519.14,738.57,518.82z"/>
	</g>
	<g id="_x23_aeb1b1ff">
		<path fill="#AEB1B1" stroke="#AEB1B1" stroke-width="0.0938" d="M739.94,520.08c2.13-0.04,4.27-0.04,6.42-0.11
			c-0.41,0.26-1.24,0.78-1.65,1.05c0.88,2.2,1.75,4.78-0.32,6.68c-2.2-0.29-4.41-0.51-6.6-0.73
			C734.99,524.45,737.83,521.78,739.94,520.08z"/>
	</g>
	<g id="_x23_bbb4bfff">
		<path fill="#BBB4BF" stroke="#BBB4BF" stroke-width="0.0938" d="M737.79,526.97c2.19,0.22,4.4,0.44,6.6,0.73
			c0.61,0.23,1.82,0.69,2.43,0.92c-0.43,1.63-0.82,3.28-1.21,4.92c-1.44,0.05-2.87,0.1-4.29,0.16c-0.84-1.2-1.68-2.4-2.5-3.6
			c0.22-0.47,0.64-1.43,0.86-1.9C739.2,527.89,738.26,527.28,737.79,526.97z"/>
	</g>
	<g id="_x23_949287ff">
		<path fill="#949287" stroke="#949287" stroke-width="0.0938" d="M746.82,528.62c0.99,1.43,1.45,3.13,1.57,4.86l-1.32,0.08
			c0.93,1.43,1.98,2.82,2.63,4.43c-0.25,1.25-0.67,2.46-1.05,3.68c1.06,0.61,2.14,1.23,3.22,1.86c-0.55,2-1.1,4.0099-1.64,6.03
			c-2.6-0.04-5.2-0.06-7.79-0.05c0.01-0.53,0.03-1.58,0.04-2.11c2.3,0.11,4.63,0.29,6.94,0.02c0.36-1.25,0.41-2.59,0.02-3.84
			c-1.98-1.61-4.67-0.95-6.99-0.92c-2.17-2.1-2.83-4.8799-1.98-7.75c-0.84-0.58-1.67-1.15-2.5-1.7c0.25-1.05,0.53-2.09,0.85-3.11
			c0.82,1.2,1.66,2.4,2.5,3.6c1.42-0.06,2.85-0.11,4.29-0.16C746,531.9,746.39,530.25,746.82,528.62 M742.62,535.59
			c-0.56,1.62-0.33,3.35-0.32,5.04c1.81-0.02,3.63-0.04,5.46-0.06c-0.01-1.13-0.05-2.26-0.12-3.38
			C746.69,535.39,744.39,535.15,742.62,535.59z"/>
	</g>
	<g id="_x23_865439ff">
		<path fill="#865439" stroke="#865439" stroke-width="0.0938" d="M691.25,533.44c15.57-0.16,31.15,0.24,46.72-0.23
			c0.83,0.55,1.66,1.12,2.5,1.7c-0.85,2.8701-0.1899,5.65,1.98,7.75c0.02,1.58,0.03,3.16,0.03,4.7401
			c-0.01,0.53-0.03,1.58-0.04,2.11c-0.03,1.58-0.07,3.19,0.22,4.77c2.35,1.36,5.09,0.98,7.63,0.45c0.28-0.69,0.84-2.05,1.11-2.74
			c-0.29-0.61-0.88-1.82-1.17-2.43c0.54-2.02,1.09-4.03,1.64-6.03c-1.08-0.63-2.16-1.25-3.22-1.86c0.38-1.22,0.8-2.43,1.05-3.68
			c-0.65-1.61-1.7-3-2.63-4.43l1.32-0.08c15.58-0.01,31.17-0.1,46.76,0.08c8.84,13.74,16.46,28.21,24.79,42.26
			c7.89,16.4,17.66,31.8,26.57,47.66c1.19,2.3,0.93,4.99,1,7.51c-0.17,11.68,0.01,23.37-0.1,35.07c-0.0699,15.39-0.08,30.79,0,46.19
			c0.08,72.25-0.03,144.51,0.05,216.76c0.46,2.12-1.28,3.85-3.4,3.48c-64.34,0.1-128.7-0.01-193.05,0.05
			c-3.7-0.0099-7.42,0.23-11.09-0.29c-1.18-1.85-1.29-4.09-1.33-6.2c0.2-71.23-0.16-142.46,0.18-213.69
			c0.35-15.48,0.59-30.97-0.04-46.44c-0.2-12.3-0.04-24.6-0.12-36.9c-0.21-4.39,2.62-7.95,4.63-11.57
			c9.24-16.44,18.85-32.66,27.94-49.18c2.33-3.71,4.57-7.48,6.4-11.47c2.15-4.69,5.5-8.69,7.81-13.3
			C687.12,540.02,689.05,536.65,691.25,533.44 M739.79,560.47c-16.6-0.3199-33.21-0.05-49.82-0.16c-0.3799,3.11-0.58,6.29,0.52,9.29
			c15.95-0.31,31.91,0.03,47.87-0.17c0.01-0.64,0.02-1.91,0.02-2.54c2.05,3.44,6.23,2.69,9.28,1.23c-0.1,1.67,2.22,1.25,3.3,1.39
			c13.34-0.04,26.68-0.06,40.02,0.02c1.65-0.1201,3.44,0.23,5.01-0.4901c1.14-2.78,0.33-5.87,0.07-8.74
			c-15.35,0.04-30.7-0.01-46.04,0.07c0.24-4.27-4.76-5.99-8.06-4.35C740.21,556.77,740.43,558.98,739.79,560.47 M681.09,658.18
			c-0.1201,75.4-0.02,150.81-0.04,226.21c41.43,0.01,82.85-0.03,124.27,0.01c0-75.4,0.05-150.8-0.03-226.2
			C763.89,658.18,722.49,658.23,681.09,658.18z"/>
	</g>
	<g id="_x23_bfbbc3ff">
		<path fill="#BFBBC3" stroke="#BFBBC3" stroke-width="0.0938" d="M742.62,535.59c1.77-0.44,4.07-0.2,5.02,1.6
			c0.07,1.12,0.11,2.25,0.12,3.38c-1.83,0.02-3.65,0.04-5.46,0.06C742.29,538.94,742.06,537.21,742.62,535.59z"/>
	</g>
	<g id="_x23_bcbbc0ff">
		<path fill="#BCBBC0" stroke="#BCBBC0" stroke-width="0.0938" d="M742.45,542.66c2.32-0.03,5.01-0.69,6.99,0.92
			c0.39,1.25,0.34,2.59-0.02,3.84c-2.31,0.27-4.64,0.09-6.94-0.02C742.48,545.82,742.47,544.24,742.45,542.66z"/>
	</g>
	<g id="_x23_b7bab9ff">
		<path fill="#B7BAB9" stroke="#B7BAB9" stroke-width="0.0938" d="M742.44,549.51c2.59-0.01,5.19,0.01,7.79,0.05
			c0.29,0.61,0.88,1.82,1.17,2.43c-0.27,0.69-0.83,2.05-1.11,2.74c-2.54,0.53-5.28,0.91-7.63-0.45
			C742.37,552.7,742.41,551.09,742.44,549.51z"/>
	</g>
	<g id="_x23_b3b6b8ff">
		<path fill="#B3B6B8" stroke="#B3B6B8" stroke-width="0.0938" d="M739.79,560.47c0.64-1.49,0.42-3.7,2.17-4.45
			c3.3-1.64,8.3,0.08,8.06,4.35C746.98,563.01,742.91,562.91,739.79,560.47z"/>
	</g>
	<g id="_x23_016737ff">
		<path fill="#016737" stroke="#016737" stroke-width="0.0938" d="M689.97,560.31c16.61,0.11,33.22-0.16,49.82,0.16
			c3.12,2.44,7.19,2.54,10.23-0.1c15.34-0.08,30.69-0.03,46.04-0.07c0.26,2.87,1.07,5.96-0.07,8.74
			c-1.57,0.72-3.36,0.37-5.01,0.4901c-13.34-0.08-26.68-0.0601-40.02-0.02c-1.08-0.14-3.4,0.28-3.3-1.39
			c-0.09-1.41-0.21-2.8-0.37-4.17c-2.89-2.52-9.65-2.14-8.91,2.94c0,0.63-0.01,1.9-0.02,2.54c-15.96,0.2-31.92-0.14-47.87,0.17
			C689.39,566.6,689.59,563.42,689.97,560.31z"/>
	</g>
	<g id="_x23_b7b6baff">
		<path fill="#B7B6BA" stroke="#B7B6BA" stroke-width="0.0938" d="M738.38,566.89c-0.74-5.08,6.02-5.46,8.91-2.94
			c0.16,1.37,0.28,2.76,0.37,4.17C744.61,569.58,740.43,570.33,738.38,566.89z"/>
	</g>
	<g id="_x23_8cc63eff">
		<path fill="#8CC63E" stroke="#8CC63E" stroke-width="0.0938" d="M238.04,666.06c0.52,0.02,1.56,0.06,2.08,0.08
			c132.5-0.09,265.01,0.14,397.51-0.12c-0.82,7.62-0.22,15.3-0.41,22.94c0.1201,7.78-0.27,15.57,0.3701,23.33
			c-105.86-0.09-211.72-0.0099-317.57-0.04c-26.86-0.13-53.74,0.25-80.59-0.18l-1.24-0.3C237.38,696.55,238.11,681.28,238.04,666.06
			z"/>
		<path fill="#8CC63E" stroke="#8CC63E" stroke-width="0.0938" d="M847.41,666.06c85.82,0.15,171.64,0.05,257.46,0.04l1.72,0.46
			c0.3,14.98-0.0399,30.29,0.13,45.4c-0.47,0.05-1.4099,0.16-1.88,0.21c-85.8,0.18-171.62,0.03-257.43,0.08
			C847.33,696.85,847.34,681.45,847.41,666.06z"/>
		<path fill="#8CC63E" stroke="#8CC63E" stroke-width="0.0938" d="M237.95,1558.11c0.5,0.03,1.51,0.0701,2.01,0.1
			c288.29,0.04,576.58-0.0399,864.8599,0.04c0.4801,0.02,1.4401,0.08,1.9301,0.1c-0.14,15.1901-0.03,30.39-0.04,45.59
			l-1.1499,0.2101c-51.17,0.4199-102.36,0.0599-153.54,0.1799c-229.03,0-458.05,0-687.08,0c-8.9-0.1499-17.82,0.36-26.71-0.3199
			c-0.68-5.3101-0.43-10.67-0.29-15.99C238.55,1578.05,237.65,1568.08,237.95,1558.11z"/>
	</g>
	<g id="_x23_98b24aff">
		<path fill="#98B24A" stroke="#98B24A" stroke-width="0.0938" d="M637.63,666.02l1.1-0.1c0.63,15.47,0.39,30.96,0.04,46.44
			l-1.18-0.07c-0.64-7.7599-0.25-15.55-0.3701-23.33C637.41,681.32,636.81,673.64,637.63,666.02z"/>
	</g>
	<g id="_x23_111111ff">
		<path fill="#111111" stroke="#111111" stroke-width="0.0938" d="M755.13,675.15c0.49,0.11,1.48,0.35,1.97,0.47
			C757.08,738.75,757.09,801.87,757.09,865c-0.05,3.17,0.17,6.35-0.15,9.52c-0.45,0.19-1.35,0.56-1.8,0.75
			c-0.32-27.75-0.05-55.52-0.14-83.28C755.09,753.04,754.83,714.09,755.13,675.15z"/>
	</g>
	<g id="_x23_141e4bff">
		<path fill="#141E4B" stroke="#141E4B" stroke-width="0.0938" d="M238.19,711.77l1.24,0.3c0.58,2.59,0.85,5.25,0.87,7.92
			c-0.05,264.35,0,528.7-0.03,793.05c-0.15,15.0599,0.36,30.12-0.31,45.1699c-0.5-0.0299-1.51-0.0699-2.01-0.1
			c-0.06-24.39,0.07-48.78,0.05-73.17c0.31-27.6499-0.34-55.2999,0.08-82.9399c0.08-13.03-0.11-26.04-0.17-39.0601
			c0.37-11.6299,0.08-23.2799,0.11-34.9099c0.06-33.3301,0.08-66.66-0.11-99.99c0.4-21.36-0.13-42.7101,0-64.0701
			c0.26-140,0.09-279.98,0.04-419.99C238.5,733.24,237.39,722.5,238.19,711.77z"/>
		<path fill="#141E4B" stroke="#141E4B" stroke-width="0.0938" d="M1105.5601,1604.15l1.1499-0.2101
			c0.1801,13.7001,0.11,27.41,0.03,41.1201c-0.5699,36.0399-16.66,71.1899-42.65,96c-28.77,27.99-69.04,43.48-109.12,42.74
			c-6.73-0.14-13.49,0.25-20.21-0.1901c-9.18-1.49-18.5-0.74-27.75-0.9c-140.02-0.01-280.04,0-420.06,0
			c-18.47,0.14-36.95-0.34-55.4,0.24l0.99-1.1499c173.48-0.17,346.97,0.0599,520.45-0.1101c29.98,0.8101,60.07-7.3999,85.54-23.22
			c5.36-3.49,10.2999-7.5699,15.34-11.51c13.0699-9.62,23.14-22.7,31.75-36.3099c11.2-18.9501,17.9301-40.66,18.9-62.66
			c0.1899-9.3199,0.02-18.63,0.0599-27.9399C1104.65,1614.74,1103.97,1609.3,1105.5601,1604.15z"/>
	</g>
	<g id="_x23_ca0101ff">
		<path fill="#CA0101" stroke="#CA0101" stroke-width="0.0938" d="M639.11,933.52c52.28-0.24,104.56,0,156.83-0.11
			c16.64,0.09,33.28-0.12,49.91,0.1201C776.94,933.59,708.03,933.61,639.11,933.52z"/>
		<path fill="#CA0101" stroke="#CA0101" stroke-width="0.0938" d="M886.88,1134.9301c6.5,1.3199,12.84,3.34,19.28,4.9199
			c2.4301,0.76,5.22,1,7.19,2.79c25.14,22.47,50.54,44.65,75.62,67.1799c-1.04,4.38-2.18,8.75-3.54,13.05
			C952.68,1193.4399,919.51,1164.48,886.88,1134.9301z"/>
	</g>
	<g id="_x23_ca0001ff">
		<path fill="#CA0001" stroke="#CA0001" stroke-width="0.0938" d="M684.14,971.97c1.05-4.46,2.25-8.9,3.59-13.28
			c14.8,12.69,29.04,26.02,43.67,38.91c18.0099,16.39,36.46,32.3,54.24,48.9401c-5.97-1.0901-11.72-3.05-17.61-4.4701
			c-2.48-0.72-5.27-1.0199-7.2401-2.85C735.24,1016.81,709.73,994.34,684.14,971.97z"/>
	</g>
	<g id="_x23_010066ff">
		<path fill="#010066" stroke="#010066" stroke-width="0.0938" d="M729.14,968.66c0.2-0.04,0.6-0.1299,0.81-0.17l-0.54,0.24
			c-0.3199,0.14-0.97,0.42-1.29,0.56c33.36,8.87,66.64,18.09,100.08,26.67c0.35,0.43,1.05,1.3,1.4,1.73
			c-4.52,16.86-9.02,33.73-13.56,50.58c-30.1-26.2-59.7599-52.91-90.0099-78.93C726.81,969.17,728.36,968.83,729.14,968.66z"/>
		<path fill="#010066" stroke="#010066" stroke-width="0.0938" d="M682.77,976.98c21.77,19.98,43.93,39.56,65.5,59.75
			c-25.39-6.72-50.73-13.62-76.1-20.36C675.68,1003.23,679.14,990.08,682.77,976.98z"/>
		<path fill="#010066" stroke="#010066" stroke-width="0.0938" d="M887.98,1012.21c34.87,9.29,69.76,18.57,104.58,28.07
			c-39.39,8.1699-78.93,15.6899-118.37,23.62C878.77,1046.66,883.46,1029.46,887.98,1012.21z"/>
		<path fill="#010066" stroke="#010066" stroke-width="0.0938" d="M939.02,1087.8199c29.2-6.34,58.47-12.4099,87.7-18.62
			c-3.4399,13.14-7.08,26.2201-10.48,39.37C990.49,1101.67,964.72,1094.86,939.02,1087.8199z"/>
		<path fill="#010066" stroke="#010066" stroke-width="0.0938" d="M657.09,1072.29c25.41,6.6799,50.79,13.45,76.12,20.4099
			c-28.79,6.5901-57.73,12.5901-86.58,18.91C650.14,1098.51,653.75,1085.4301,657.09,1072.29z"/>
		<path fill="#010066" stroke="#010066" stroke-width="0.0938" d="M679.89,1140.8101c39.24-8.3601,78.59-16.2001,117.88-24.3601
			c-4.68,17.4601-9.25,34.9601-14.09,52.38C749.13,1159.3199,714.41,1150.4,679.89,1140.8101z"/>
		<path fill="#010066" stroke="#010066" stroke-width="0.0938" d="M855.98,1132.28c0.73,0.47,1.4,1.01,2.1,1.6
			c29.47,26,58.78,52.17,88.36,78.05c-0.88,0.1-2.64,0.2999-3.53,0.3999c-0.16,0.02-0.48,0.0601-0.64,0.0801l0.12-0.14
			c0.18-0.22,0.55-0.65,0.73-0.86c-33.77-8.8201-67.41-18.11-101.17-26.99C846.57,1167.02,851.12,1149.6,855.98,1132.28z"/>
		<path fill="#010066" stroke="#010066" stroke-width="0.0938" d="M923.94,1144.9399c8.75,1.7001,17.25,4.51,25.9,6.66
			c17.03,4.48,33.97,9.26,51.04,13.5701c-3,12.4099-6.5,24.7-9.8,37.0399C968.59,1183.24,946.34,1164,923.94,1144.9399z"/>
	</g>
	<g id="_x23_cc0001ff">
		<path fill="#CC0001" stroke="#CC0001" stroke-width="0.0938" d="M841.67,999.89c11.85,2.87,23.55,6.33,35.37,9.3
			c-5.63,23.07-12.52,45.82-18.04,68.92c31.6,8.29,63.18,16.6801,94.76,25.05c19.7,5.34,39.56,10.1699,59.16,15.87
			c-0.67,5.9-2.79,11.52-4.2,17.27c-1.9,5.49-3.11,11.1799-4.7,16.76c-1.06-0.15-3.18-0.4601-4.23-0.6201
			c-50.0099-13.5-100.16-26.45-150.17-39.9199c-6.48,22.9299-12.07,46.1-18.75,68.97c-6.89-1.91-13.73-4.08-20.76-5.4
			c-4.41-1.6699-9.02-2.64-13.55-3.89c6-22.83,12.28-45.58,18.23-68.4199c-51.57-13.8101-103.11-27.72-154.7-41.4301
			c2.27-10.66,5.69-21.03,8.17-31.63c0.18-0.73,0.55-2.1699,0.74-2.9c51.49,13.3,102.72,27.65,154.2,41.04
			C829.35,1045.87,835.49,1022.87,841.67,999.89z"/>
	</g>
	<g id="_x23_cb0002ff">
		<path fill="#CB0002" stroke="#CB0002" stroke-width="0.0938" d="M876.04,1070.98c41.57-9.4,83.33-18.02,124.96-27.23
			c3.05-0.89,6.07,0.36,9.01,1.12c7.08,2.0601,14.3099,3.58,21.3,5.95c-41.0901,8.75-82.2601,17.14-123.3701,25.8201
			c-2.97,0.62-6.08,1.58-9.07,0.52C891.27,1075.05,883.63,1073.09,876.04,1070.98z"/>
	</g>
	<g id="_x23_cb0102ff">
		<path fill="#CB0102" stroke="#CB0102" stroke-width="0.0938" d="M641.77,1130.7c43-9.4199,86.23-17.76,129.29-26.9299
			c8.39,2.11,16.78,4.25,25.05,6.7999c-42.41,8.9901-84.84,17.87-127.26,26.79c-1.56,0.35-3.11-0.24-4.59-0.59
			C656.8,1134.62,649.25,1132.78,641.77,1130.7z"/>
	</g>
	<g id="_x23_f31931ff">
		<path fill="#F31931" stroke="#F31931" stroke-width="0.0938" d="M945.16,1228.45c3.2-1.21,6.51-2.5399,10.02-2.0299
			c0.28,2.2699,0.93,4.48,1.94,6.5599c8.94,26.1,19.19,51.77,27.89,77.9501c4.62,10.45,8.03,21.3999,11.89,32.1499
			c3.59,8.91,6.62,18.01,9.93,27.03c2.12,5.58,3.9,11.29,6.33,16.76c0.8701,2.7,1.79,5.41,2.72,8.11
			c1.39,4.88,4.4,9.4301,3.89,14.71c-13.27,4.8101-26.66,9.3201-39.76,14.6101c-1.08,0.12-2.15,0.2699-3.2,0.4399
			c-0.43,0.34-1.29,1.02-1.72,1.36c-18.8,6.3-37.31,13.5-55.9901,20.1801c-7.99,2.97-16.08,5.6899-24,8.87
			c-5.47,1.6699-10.86,3.61-16.09,5.91c-15.06,5.0299-29.88,10.75-44.82,16.12c-21.83,7.73-43.46,16.0199-65.31,23.6899
			c-1.68,0.66-3.37,1.29-5.05,1.9401c-7.76,2.71-15.39,5.7799-23.26,8.1499c-4.04-10.26-7.85-20.62-11.41-31.0499
			c-1.02-2.1901-1.67-4.51-2.1299-6.85c-3.61-7.0801-5.63-14.8401-8.53-22.2201c-4.88-13.2899-9.6-26.62-14.59-39.87
			c-2.53-8.25-6.04-16.15-8.7599-24.33c-3.4901-9.16-6.5-18.51-10.23-27.5701c-3-9.5399-6.9-18.7599-10.08-28.23
			c-0.44-1.34-0.39-2.73-0.4901-4.09c20.4-6.65,40.35-14.6801,60.64-21.6899c7.26-2.76,14.64-5.2201,21.82-8.1801
			c11.83-3.9301,23.41-8.53,35.17-12.64c8.22-3.39,16.85-5.71,24.99-9.3199c5.47-1.7201,10.9301-3.61,16.1201-6.0801
			c0.94-0.2,1.89-0.38,2.86-0.5299C872.29,1254.87,908.77,1241.78,945.16,1228.45 M782,1341.91
			c-15.17,4.12-28.14,15.5299-34.07,30.1c-6.7,15.5599-4.95,34.28,4.3,48.46c10.4,16.39,30.6,25.9601,49.88,23.38
			c17.58-1.96,33.96-13.51,41-29.85c-4.17,3.48-8.31,7.12-13.21,9.5601c-9.47,4.74-20.4301,7.0599-30.94,5.11
			c-10.97-1.7001-21.43-7.5901-27.89-16.7101c-9.46-12.77-9.01-31.1899-0.39-44.27c10.02-15.96,29.65-24.6399,48.24-22.3199
			C807.58,1339.74,794.17,1338.5,782,1341.91 M848.28,1361.4c-0.78,0.39-1.66,1.15-2.57,0.6799c-4.87-1.7999-9.52-4.09-14.39-5.87
			c1.34,5.37,2.79,10.7001,4.12,16.0801c-3.64,3.97-7.14,8.0699-10.6,12.21c5.42,0.61,10.87,0.9301,16.33,1.15
			c2.88,4.59,5.35,9.46,8.73,13.73c2.04-4.92,3.98-9.88,5.81-14.87c5.35-1.53,10.83-2.51,16.18-4
			c-4.21-3.48-8.44-6.9401-12.68-10.37c0.22-5.4401,0.94-10.83,1.22-16.24C856.1,1355.92,852.33,1358.89,848.28,1361.4z"/>
	</g>
	<g id="_x23_fe2e22ff">
		<path fill="#FE2E22" stroke="#FE2E22" stroke-width="0.0938" d="M517.97,1240.89c1.67-0.9501,3.3701-1.84,5.08-2.71
			c2.72,4.13,4.16,9.4299,8.35,12.37c0.71,1.73,1.05,3.6499,2.3,5.1599c-0.41-0.0699-1.23-0.21-1.65-0.2799
			c0.38,0.3099,1.12,0.9399,1.5,1.25c0.5,1.08,1.01,2.1699,1.52,3.2799c2.86,5.89,6.56,11.3201,9.47,17.1901
			c-15.05,9.28-30.59,17.77-45.83,26.74c-63.01,36.51-126.22,72.67-189.11,109.39c-6.67-12.2101-13.96-24.0801-20.74-36.23
			c-0.68-1.0801-0.76-2.41-0.37-3.5801c34.83-20.14,69.73-40.1899,104.52-60.4c5.59-3.6,12.05-5.98,16.87-10.6699
			c-0.2,0.73-0.4,1.48-0.58,2.24c3.46-3.58,8.1-5.55,12.32-8.05C453.73,1278,485.9,1259.54,517.97,1240.89 M530.14,1251.11
			l-0.58,0.49l0.41,0.89l0.94,0.08c-0.02-0.35-0.0699-1.0299-0.09-1.37L530.14,1251.11z"/>
	</g>
	<g id="_x23_a64b31ff">
		<path fill="#A64B31" stroke="#A64B31" stroke-width="0.0938" d="M530.14,1251.11l0.68,0.09c0.02,0.3401,0.07,1.02,0.09,1.37
			l-0.94-0.08l-0.41-0.89L530.14,1251.11z"/>
	</g>
	<g id="_x23_6e532bff">
		<path fill="#6E532B" stroke="#6E532B" stroke-width="0.0938" d="M534.61,1257.66c2.88,2.5599,4.21,6.26,6.21,9.46
			c2.2,3.88,5.25,7.49,5.89,12.05c-0.72-0.7001-1.44-1.37-2.17-2.02c-2.91-5.87-6.61-11.3-9.47-17.1901
			C534.96,1259.39,534.72,1258.24,534.61,1257.66z"/>
	</g>
	<g id="_x23_fdee21ff">
		<path fill="#FDEE21" stroke="#FDEE21" stroke-width="0.0938" d="M498.71,1303.89c15.24-8.97,30.78-17.46,45.83-26.74
			c0.73,0.65,1.45,1.3199,2.17,2.02c6.91,12.01,13.81,24.0399,20.78,36.0199c-19.72,11.14-39.05,22.9901-59.05,33.6001
			c0.27,0.0399,0.81,0.12,1.08,0.1599c-1.35,0.8601-2.69,1.74-4.02,2.64c-0.02-0.3099-0.04-0.9199-0.06-1.23
			c-5.78,4.48-12.39,7.6801-18.64,11.42c-11.43,6.58-22.87,13.14-34.26,19.7899c-5.55,3.0701-10.84,6.7001-16.83,8.9
			c0.26,0.17,0.79,0.5,1.05,0.67c-6.89,3.04-13.08,7.37-19.69,10.9299c-28.49,16.3601-56.85,32.92-85.38,49.2001
			c-4.57-7.8301-9.11-15.67-13.62-23.53c-0.9-1.72-1.88-3.39-2.87-5.04c-1.87-3.1399-3.64-6.34-5.6-9.4199
			C372.49,1376.5601,435.7,1340.4,498.71,1303.89z"/>
	</g>
	<g id="_x23_3ab54aff">
		<path fill="#3AB54A" stroke="#3AB54A" stroke-width="0.0938" d="M508.44,1348.79c20-10.61,39.33-22.4601,59.05-33.6001
			c7.42,13.15,15.27,26.0701,22.5,39.3301c-75.15,43.33-150.24,86.75-225.36,130.14c-3.41,2.0399-6.85,4.0699-10.52,5.63
			c-7.35-13.0801-15.03-25.9701-22.42-39.02c28.53-16.28,56.89-32.84,85.38-49.2001c6.61-3.5599,12.8-7.8899,19.69-10.9299
			c-0.26-0.17-0.79-0.5-1.05-0.67c5.99-2.2,11.28-5.83,16.83-8.9c11.39-6.6499,22.83-13.21,34.26-19.7899
			c6.25-3.74,12.86-6.9401,18.64-11.42c0.02,0.3101,0.04,0.92,0.06,1.23c1.33-0.9,2.67-1.7799,4.02-2.64
			C509.25,1348.91,508.71,1348.83,508.44,1348.79z"/>
	</g>
	<g id="_x23_fffefeff">
		<path fill="#FFFEFE" stroke="#FFFEFE" stroke-width="0.0938" d="M782,1341.91c12.17-3.41,25.58-2.17,36.92,3.46
			c-18.59-2.3199-38.22,6.36-48.24,22.3199c-8.62,13.0801-9.07,31.5,0.39,44.27c6.46,9.12,16.92,15.01,27.89,16.7101
			c10.5099,1.95,21.47-0.37,30.94-5.11c4.9-2.4401,9.04-6.0801,13.21-9.5601c-7.04,16.34-23.42,27.89-41,29.85
			c-19.28,2.5801-39.48-6.99-49.88-23.38c-9.25-14.1799-11-32.9-4.3-48.46C753.86,1357.4399,766.83,1346.03,782,1341.91z"/>
		<path fill="#FFFEFE" stroke="#FFFEFE" stroke-width="0.0938" d="M848.28,1361.4c4.05-2.51,7.8199-5.48,12.15-7.5
			c-0.28,5.41-1,10.7999-1.22,16.24c4.24,3.4299,8.47,6.89,12.68,10.37c-5.35,1.49-10.83,2.47-16.18,4
			c-1.83,4.99-3.77,9.95-5.81,14.87c-3.38-4.27-5.85-9.14-8.73-13.73c-5.46-0.22-10.91-0.54-16.33-1.15
			c3.46-4.14,6.96-8.24,10.6-12.21c-1.33-5.38-2.78-10.7101-4.12-16.0801c4.87,1.78,9.52,4.0701,14.39,5.87
			C846.62,1362.55,847.5,1361.79,848.28,1361.4z"/>
	</g>
	<g id="_x23_2d7316ff">
		<path fill="#2D7316" stroke="#2D7316" stroke-width="0.0938" d="M315.2,1422.7c0.99,1.65,1.97,3.3201,2.87,5.04l0.25,1.7
			C316.04,1427.89,315.08,1425.38,315.2,1422.7z"/>
	</g>
	<g id="_x23_131e4bff">
		<path fill="#131E4B" stroke="#131E4B" stroke-width="0.0938" d="M238.27,1604.0699c1.38,1.6801,2.14,3.7401,2,5.9601
			c0.01,9.65,0,19.3099,0.01,28.97c-0.82,22.13,4.36,44.42,14.66,64.02c7.54,14.12,17.14,27.25,28.89,38.1699
			c28.62,26.8401,68.06,41.39,107.21,40.51c13.83,0.02,27.67-0.13,41.5,0.1001l-0.99,1.1499c-0.73,0.2101-1.46,0.4401-2.19,0.6801
			c-13.1,0.41-26.23,0.03-39.34,0.17c-38.9,0.76-78.01-13.7201-106.64-40.14c-23.52-21.4501-39.77-50.99-44.1-82.63
			c-1.69-10.61-0.98-21.37-1.33-32.0601C238.31,1620.67,237.81,1612.36,238.27,1604.0699z"/>
	</g>
</g>
</svg>
